<svg width="34" height="34" viewBox="0 0 34 34" fill="none" xmlns="http://www.w3.org/2000/svg">
<rect width="34" height="34" fill="white"/>
<path d="M14.7221 3.33199C9.36707 4.52199 5.40607 8.31299 4.08007 13.515C3.63807 15.181 3.60407 17.901 3.97807 19.669C4.94707 24.293 8.43207 28.203 12.9711 29.767C16.5411 30.991 20.0431 30.753 23.5451 29.07C25.2621 28.237 27.3531 26.673 27.9481 25.772C28.2881 25.245 28.1861 24.718 27.6931 24.565C27.4381 24.48 27.0811 24.701 26.2311 25.5C24.9221 26.741 23.6131 27.608 22.2871 28.135C20.4681 28.866 20.4681 28.866 21.4201 27.676C22.5421 26.299 23.4941 24.599 23.3581 24.242C23.2391 23.953 22.5591 23.698 22.3041 23.868C22.2021 23.919 21.8961 24.378 21.6241 24.871C20.9781 26.027 19.1931 28.254 18.6151 28.628L18.1901 28.9V23.63V18.36H19.0911C20.0771 18.36 20.4001 18.156 20.4001 17.561C20.4001 17.068 19.9411 16.83 18.9721 16.83H18.1901V10.676V4.52199L19.0571 5.35499C20.2811 6.56199 21.2671 7.92199 22.1171 9.58799C22.5251 10.387 22.9841 11.067 23.1371 11.101C23.5791 11.22 23.9701 10.897 23.9701 10.421C23.9701 9.82599 22.7461 7.56499 21.6241 6.10299C20.5531 4.69199 20.6211 4.69199 23.0521 5.86499C25.5681 7.08899 27.7101 9.33299 28.8661 11.951C29.2401 12.801 29.6311 13.073 30.0731 12.801C30.5151 12.512 30.4811 11.985 29.9031 10.846C28.1011 7.24199 25.0071 4.64099 21.2161 3.56999C19.5331 3.07699 16.3371 2.95799 14.7221 3.33199ZM16.8301 10.795V16.83H14.0251H11.2201V15.827C11.2201 13.43 12.3761 10.047 13.9911 7.64999C14.5861 6.78299 16.4731 4.75999 16.6941 4.75999C16.7621 4.75999 16.8301 7.47999 16.8301 10.795ZM13.3281 6.15399C11.4071 8.68699 10.0471 12.24 9.77507 15.436L9.63907 16.83H7.37807H5.10007V16.099C5.10007 14.977 5.71207 12.699 6.35807 11.441C7.56507 9.04399 9.23107 7.27599 11.4411 6.10299C12.2061 5.69499 13.8721 4.99799 14.2291 4.92999C14.2461 4.92999 13.8381 5.49099 13.3281 6.15399ZM9.92807 19.363C10.2511 22.134 11.9851 26.061 13.7361 27.914C14.2971 28.526 14.1611 28.628 13.2771 28.305C10.6761 27.404 7.97307 25.16 6.71507 22.899C6.03507 21.675 5.27007 19.482 5.27007 18.785V18.36H7.54807H9.80907L9.92807 19.363ZM16.8301 23.63C16.8301 26.605 16.7621 28.9 16.6771 28.9C16.4391 28.9 14.6881 26.945 13.9231 25.806C12.6481 23.953 11.6621 21.386 11.3051 19.074L11.1861 18.36H14.0081H16.8301V23.63Z" fill="#61AEB0"/>
<path d="M22.7121 12.308C21.6241 12.954 21.6071 13.073 21.5901 17.476V21.437L22.0151 21.845C22.6441 22.491 23.2051 22.389 24.1061 21.505C24.5141 21.08 24.8881 20.74 24.9221 20.74C24.9561 20.74 25.2281 21.165 25.5171 21.675C26.1461 22.797 26.7241 23.29 27.4211 23.29C28.0161 23.29 29.6821 22.389 29.9201 21.93C30.2431 21.335 30.0901 20.536 29.4951 19.448C28.8321 18.275 28.7981 18.343 30.0901 18.105C30.8891 17.952 31.4501 17.408 31.4501 16.796C31.4501 16.507 31.2801 16.15 31.0761 15.929C30.3621 15.232 24.3951 11.9 23.8681 11.9C23.5961 11.9 23.0691 12.087 22.7121 12.308ZM26.7241 14.909C28.2881 15.827 29.5801 16.626 29.5801 16.677C29.5801 16.728 29.1211 16.864 28.5431 16.966C27.4381 17.17 27.0301 17.391 27.0301 17.799C27.0301 17.952 27.4211 18.751 27.9141 19.584C28.8491 21.233 28.8661 21.131 27.8291 21.692C27.3701 21.947 27.3531 21.93 26.8941 21.165C25.1771 18.309 25.0581 18.241 23.9531 19.533C23.5621 20.009 23.1711 20.4 23.0861 20.4C23.0181 20.4 22.9501 18.921 22.9501 17.102C22.9501 13.872 22.9671 13.787 23.3241 13.532C23.5281 13.379 23.7491 13.26 23.7831 13.26C23.8341 13.26 25.1431 14.008 26.7241 14.909Z" fill="#61AEB0"/>
</svg>
