<svg width="74" height="104" viewBox="0 0 74 104" fill="none" xmlns="http://www.w3.org/2000/svg">
<path d="M33.0606 0.431011C27.1221 2.25001 22.3606 8.56301 22.3606 14.662C22.3606 20.2795 26.5336 26.325 31.7766 28.251C36.1636 29.9095 39.7481 29.749 43.8141 27.609C49.3781 24.72 51.7856 20.7075 51.7856 14.0735C51.7856 6.20901 45.2051 -0.15749 37.1266 0.0030117C35.6286 0.0030117 33.8096 0.21701 33.0606 0.431011Z" fill="#895B4A"/>
<path d="M16.7431 36.0085C13.2656 37.56 12.1421 39.5395 6.15015 54.252C-0.269853 69.981 -0.965353 72.8165 0.907147 75.759C1.49565 76.722 2.51215 77.792 3.20765 78.2735C5.34765 79.611 37.4476 87.6895 38.9456 87.2615C41.9951 86.4055 43.7607 84.1585 43.7607 81.1625C43.7607 77.6315 41.9417 76.294 33.3281 73.405C29.2086 72.0675 25.4101 70.5695 24.9286 70.1415C24.3937 69.7135 23.5911 68.3225 23.1096 67.0385C20.2206 59.495 28.9411 53.503 35.2006 58.746L37.0196 60.244L39.0527 58.6925C43.9212 54.7335 50.8227 57.355 51.6251 63.454C51.9461 65.915 50.3411 69.553 47.3451 72.977L45.5261 75.0635L46.5961 77.471C49.2176 83.4095 44.6166 90.846 38.2501 90.8995C37.0731 90.8995 25.1961 88.064 19.0436 86.2985C18.1341 86.031 18.0806 86.673 18.0806 94.8585V103.74H37.3406H56.6007V79.825V55.964L58.6872 58.853L60.7737 61.7955L61.1482 73.298C61.3622 79.611 61.7367 85.496 62.0042 86.459C62.9137 89.348 66.2842 90.7925 69.2267 89.562C72.5437 88.2245 72.6507 87.6895 73.0787 72.121L73.5067 57.997L67.5682 47.8855C64.1977 42.1075 61.0412 37.2925 60.1852 36.6505C58.7407 35.5805 57.9916 35.527 38.5176 35.42C22.5211 35.313 18.0271 35.42 16.7431 36.0085ZM17.5456 66.8245C17.5456 67.948 17.3316 68.3225 16.7966 68.1085C16.1546 67.841 16.1011 67.52 16.5826 66.5035C17.3851 64.845 17.5456 64.8985 17.5456 66.8245Z" fill="#895B4A"/>
</svg>
