<svg width="101" height="95" viewBox="0 0 101 95" fill="none" xmlns="http://www.w3.org/2000/svg">
<path d="M69.6625 1.14254C65.8825 3.13754 63.625 6.60254 63.625 10.4875C63.625 13.7425 64.6225 15.895 67.195 18.205C72.025 22.5625 80.215 21.0925 82.9975 15.37C84.205 12.85 84.415 9.12254 83.5225 6.70754C82.7875 4.71254 80.005 1.87754 77.9575 0.985039C75.7 0.0400391 71.605 0.0925388 69.6625 1.14254Z" fill="#104D8D"/>
<path d="M64.6226 25.0826C62.1551 26.3951 61.3151 27.4976 52.4426 40.5701C49.3451 45.1901 47.3501 48.6026 47.3501 49.3901C47.3501 51.2801 50.0276 53.8001 51.9701 53.8001C52.8626 53.8001 53.9651 53.6426 54.4376 53.4851C54.9101 53.2751 57.0626 50.4926 59.2151 47.2901C61.3676 44.0876 63.1001 41.6726 63.1001 41.9351C63.1001 42.1976 61.5251 47.2376 59.5826 53.0651C56.2226 63.4076 56.1176 63.7226 57.0101 65.0351C57.7451 66.1901 58.2701 66.4001 60.3176 66.4001H62.7326L62.4176 70.7051C62.2076 73.1201 61.8926 78.7901 61.7351 83.3051L61.3676 91.5476L62.9951 93.1226C65.6726 95.8001 69.2951 95.0126 70.3451 91.4426C70.6601 90.5501 71.0276 85.9826 71.1851 81.3626C71.3951 76.7426 71.6576 71.4926 71.8151 69.6551L72.1301 66.3476L74.0726 66.5051L75.9626 66.6626L76.3301 71.9126C76.4876 74.8001 76.8026 80.4701 77.0126 84.4601C77.3801 91.6001 77.4326 91.8626 78.8501 93.2801C80.8976 95.3276 83.1551 95.2751 85.2551 93.1226C86.8301 91.6001 86.8826 91.4426 86.5676 87.7676C86.3576 85.6676 86.0951 80.0501 85.8851 75.1676L85.5176 66.4001H87.6176C89.9276 66.4001 91.4501 65.1926 91.4501 63.4601C91.4501 62.8826 89.9276 57.7376 88.0901 52.0676C86.2526 46.3976 84.8351 41.7251 84.9401 41.7251C85.0451 41.7251 86.7776 44.1926 88.8251 47.2376C90.8201 50.2301 92.9726 52.9601 93.4976 53.2751C95.3351 54.2201 97.6976 53.9051 99.1676 52.4351C101.425 50.1776 100.795 48.4451 93.5501 37.7876C90.0326 32.5901 86.6201 27.7601 85.9901 27.0776C83.7326 24.5576 81.2651 23.8751 73.8101 23.8751C67.6151 23.8751 66.7226 23.9801 64.6226 25.0826Z" fill="#104D8D"/>
<path d="M22.045 29.125C18.3175 30.2275 15.325 34.3225 15.325 38.2075C15.325 44.1925 21.3625 48.97 26.98 47.4475C31.9675 46.135 34.4875 42.565 34.12 37.4725C33.6475 31.2775 27.925 27.34 22.045 29.125Z" fill="#104D8D"/>
<path d="M37.375 48.2873C32.44 49.8623 31.18 50.0723 25.5625 50.0723C22.0975 50.1248 18.37 50.3873 17.32 50.6498C15.535 51.1748 9.76001 55.8998 2.88251 62.5148C0.20501 65.0348 -0.10999 67.0823 1.83251 68.9198C3.98501 70.9673 5.61251 70.4423 10.18 66.3473L14.275 62.6198V77.5823V92.5973L15.64 93.6473C17.2675 94.9073 17.8975 95.0123 19.735 94.1723C21.73 93.2273 22.15 91.1273 22.15 82.3598V74.2748H24.775H27.4V82.6748C27.4 89.0798 27.61 91.4948 28.1875 92.5973C29.395 95.0123 31.6525 95.4323 33.91 93.6473L35.275 92.5973V74.8523V57.1598L40 55.6373C43.8325 54.4298 44.6725 53.9573 44.3575 53.3273C44.1475 52.8548 43.885 51.1223 43.78 49.4423C43.675 47.8148 43.4125 46.4498 43.255 46.5023C43.045 46.5548 40.42 47.3423 37.375 48.2873Z" fill="#104D8D"/>
</svg>
