<svg width="110" height="110" viewBox="0 0 110 110" fill="none" xmlns="http://www.w3.org/2000/svg">
<path d="M28.765 5.00484C27.115 5.82985 26.125 6.81985 25.355 8.46985C24.255 10.7248 24.2 11.7148 24.2 32.7798C24.2 56.6498 24.42 58.9598 27.335 65.5048L28.875 69.0248L29.15 87.4498L29.425 105.875L49.39 106.04L69.3 106.15V95.6998C69.3 85.6348 69.355 85.2498 70.4 85.2498C71.445 85.2498 71.5 85.6348 71.5 95.6998V106.205L78.54 106.04L85.525 105.875V91.7948V77.7148L83.875 75.0198C82.83 73.3698 81.18 71.7198 79.53 70.6748L76.835 69.0248L65.23 68.7498C53.9 68.4748 53.57 68.4198 50.49 66.9348C46.915 65.1748 43.835 62.0398 42.13 58.3548C41.03 55.9348 40.975 54.8348 40.7 32.4498C40.37 6.21485 40.535 7.09485 36.245 4.89485C33.55 3.57485 31.625 3.57485 28.765 5.00484Z" fill="#895B4A"/>
<path d="M54.8349 36.3548C43.0099 38.1698 38.0049 53.0198 46.1449 62.2598C48.9499 65.4498 52.7999 67.0998 57.4199 67.0448C64.2949 66.9898 68.6949 64.3498 71.4999 58.6848C73.0949 55.3848 73.2599 54.6698 73.0399 51.0398C72.7649 46.3648 71.6099 43.5598 68.5849 40.5348C65.0649 37.0148 60.2249 35.5298 54.8349 36.3548Z" fill="#895B4A"/>
</svg>
