<svg width="62" height="104" viewBox="0 0 62 104" fill="none" xmlns="http://www.w3.org/2000/svg">
<path d="M4.76495 2.00484C3.11495 2.82985 2.12495 3.81985 1.35495 5.46985C0.254951 7.72485 0.199951 8.71484 0.199951 29.7798C0.199951 53.6498 0.419951 55.9598 3.33495 62.5048L4.87495 66.0248L5.14995 84.4498L5.42495 102.875L25.39 103.04L45.3 103.15V92.6998C45.3 82.6348 45.355 82.2498 46.4 82.2498C47.445 82.2498 47.5 82.6348 47.5 92.6998V103.205L54.54 103.04L61.525 102.875V88.7948V74.7148L59.875 72.0198C58.83 70.3698 57.18 68.7198 55.53 67.6748L52.835 66.0248L41.23 65.7498C29.9 65.4748 29.57 65.4198 26.49 63.9348C22.915 62.1748 19.835 59.0398 18.13 55.3548C17.03 52.9348 16.975 51.8348 16.7 29.4498C16.37 3.21485 16.535 4.09485 12.245 1.89485C9.54995 0.574852 7.62495 0.574852 4.76495 2.00484Z" fill="#104D8D"/>
<path d="M30.8349 33.3548C19.0099 35.1698 14.0049 50.0198 22.1449 59.2598C24.9499 62.4498 28.7999 64.0998 33.4199 64.0448C40.2949 63.9898 44.6949 61.3498 47.4999 55.6848C49.0949 52.3848 49.2599 51.6698 49.0399 48.0398C48.7649 43.3648 47.6099 40.5598 44.5849 37.5348C41.0649 34.0148 36.2249 32.5298 30.8349 33.3548Z" fill="#104D8D"/>
</svg>
